# xmcd CD database file
#
# Track frame offsets:
#	150
#	11310
#	19907
#	40600
#	56240
#	74585
#	83242
#	98485
#	116150
#	132742
#	145430
#	154960
#	163192
#	174582
#	185375
#	197872
#	209812
#
# Disc length: 2966 seconds
#
# Revision: 0
# Processed by: cddbd v1.5.2PL0 Copyright (c) Steve Scherf et al.
# Submitted via: CDex 1.81
#
DISCID=010b9411
DTITLE=Nat King Cole - Nat King Cole
DYEAR=1996
DGENRE=Jazz
TTITLE0=Sweet Gerogia Brown
TTITLE1=Yes Sir, That's My Baby
TTITLE2=Bugle Call Rag
TTITLE3=Satchel Mouth Baby
TTITLE4=Cole's Bop Blues
TTITLE5=It's Only a Paper Moon
TTITLE6=Embraceable You
TTITLE7=Body and Soul
TTITLE8=Old Piano Plays the Blues
TTITLE9=Man on the Little White Keys
TTITLE10=Miss Thing
TTITLE11=I'm Lost
TTITLE12=Too Marvelous for Words
TTITLE13=The Frim Fram Sauce
TTITLE14=If You Can't Smile and Say Yes (Please Don't Cry)
TTITLE15=Sweet Lorraine
TTITLE16=On the Sunny Side of the Street
EXTD=YEAR: 1996
EXTT0=
EXTT1=
EXTT2=
EXTT3=
EXTT4=
EXTT5=
EXTT6=
EXTT7=
EXTT8=
EXTT9=
EXTT10=
EXTT11=
EXTT12=
EXTT13=
EXTT14=
EXTT15=
EXTT16=
PLAYORDER=
